{
  "accessors": [
    {
      "bufferView": 2,
      "componentType": 5126,
      "count": 620,
      "max": [
        -15.695706367492676,
        1.251431941986084,
        0.31188899278640747
      ],
      "min": [
        -17.69570541381836,
        -1.998568058013916,
        0.06340400129556656
      ],
      "type": "VEC3"
    },
    {
      "bufferView": 2,
      "byteOffset": 7440,
      "componentType": 5126,
      "count": 620,
      "max": [
        1.0,
        0.997115433216095,
        1.0
      ],
      "min": [
        -1.0,
        -0.997115433216095,
        -1.0
      ],
      "type": "VEC3"
    },
    {
      "bufferView": 3,
      "componentType": 5126,
      "count": 620,
      "max": [
        0.9954626560211182,
        1.0,
        0.9971153736114502,
        1.0
      ],
      "min": [
        -0.9954626560211182,
        -1.0,
        -0.9971153736114502,
        -1.0
      ],
      "type": "VEC4"
    },
    {
      "bufferView": 1,
      "componentType": 5126,
      "count": 620,
      "max": [
        1.0,
        1.0
      ],
      "min": [
        -0.0087890001013875,
        0.029296999797225
      ],
      "type": "VEC2"
    },
    {
      "bufferView": 0,
      "componentType": 5125,
      "count": 2550,
      "type": "SCALAR"
    }
  ],
  "asset": {
    "extras": {
      "author": "InteractiveZone (https://sketchfab.com/InteractiveZone)",
      "license": "CC-BY-4.0 (http://creativecommons.org/licenses/by/4.0/)",
      "source": "https://sketchfab.com/3d-models/customshield-0f013f552ed5464db73eebb7df79d978",
      "title": "CustomShield"
    },
    "generator": "Sketchfab-12.68.0",
    "version": "2.0"
  },
  "bufferViews": [
    {
      "buffer": 0,
      "byteLength": 10200,
      "name": "floatBufferViews",
      "target": 34963
    },
    {
      "buffer": 0,
      "byteLength": 4960,
      "byteOffset": 10200,
      "byteStride": 8,
      "name": "floatBufferViews",
      "target": 34962
    },
    {
      "buffer": 0,
      "byteLength": 14880,
      "byteOffset": 15160,
      "byteStride": 12,
      "name": "floatBufferViews",
      "target": 34962
    },
    {
      "buffer": 0,
      "byteLength": 9920,
      "byteOffset": 30040,
      "byteStride": 16,
      "name": "floatBufferViews",
      "target": 34962
    }
  ],
  "buffers": [
    {
      "byteLength": 39960,
      "uri": "scene.bin"
    }
  ],
  "images": [
    {
      "uri": "textures/Shield_baseColor.png"
    },
    {
      "uri": "textures/Shield_metallicRoughness.png"
    },
    {
      "uri": "textures/Shield_normal.png"
    }
  ],
  "materials": [
    {
      "doubleSided": true,
      "name": "Shield",
      "normalTexture": {
        "index": 2
      },
      "pbrMetallicRoughness": {
        "baseColorTexture": {
          "index": 0
        },
        "metallicRoughnessTexture": {
          "index": 1
        }
      }
    }
  ],
  "meshes": [
    {
      "name": "Object_0",
      "primitives": [
        {
          "attributes": {
            "NORMAL": 1,
            "POSITION": 0,
            "TANGENT": 2,
            "TEXCOORD_0": 3
          },
          "indices": 4,
          "material": 0,
          "mode": 4
        }
      ]
    }
  ],
  "nodes": [
    {
      "children": [
        1
      ],
      "matrix": [
        1.0,
        0.0,
        0.0,
        0.0,
        0.0,
        2.220446049250313e-16,
        -1.0,
        0.0,
        0.0,
        1.0,
        2.220446049250313e-16,
        0.0,
        0.0,
        0.0,
        0.0,
        1.0
      ],
      "name": "Sketchfab_model"
    },
    {
      "children": [
        2
      ],
      "name": "Shield for Editing.obj.cleaner.materialmerger.gles"
    },
    {
      "mesh": 0,
      "name": "Object_2"
    }
  ],
  "samplers": [
    {
      "magFilter": 9729,
      "minFilter": 9987,
      "wrapS": 10497,
      "wrapT": 10497
    }
  ],
  "scene": 0,
  "scenes": [
    {
      "name": "Sketchfab_Scene",
      "nodes": [
        0
      ]
    }
  ],
  "textures": [
    {
      "sampler": 0,
      "source": 0
    },
    {
      "sampler": 0,
      "source": 1
    },
    {
      "sampler": 0,
      "source": 2
    }
  ]
}
